<?xml version="1.0" encoding="UTF-8" standalone="no"?>
<!-- Created with Inkscape (http://www.inkscape.org/) -->

<svg
   version="1.1"
   id="svg1890"
   width="640"
   height="640"
   viewBox="0 0 640 640"
   sodipodi:docname="default.svg"
   inkscape:version="1.1.1 (3bf5ae0d25, 2021-09-20)"
   xmlns:inkscape="http://www.inkscape.org/namespaces/inkscape"
   xmlns:sodipodi="http://sodipodi.sourceforge.net/DTD/sodipodi-0.dtd"
   xmlns="http://www.w3.org/2000/svg"
   xmlns:svg="http://www.w3.org/2000/svg">
  <defs
     id="defs1894" />
  <sodipodi:namedview
     id="namedview1892"
     pagecolor="#ffffff"
     bordercolor="#666666"
     borderopacity="1.0"
     inkscape:pageshadow="2"
     inkscape:pageopacity="0.0"
     inkscape:pagecheckerboard="0"
     showgrid="false"
     inkscape:zoom="0.51820461"
     inkscape:cx="237.35798"
     inkscape:cy="473.75109"
     inkscape:window-width="1920"
     inkscape:window-height="1001"
     inkscape:window-x="-9"
     inkscape:window-y="-9"
     inkscape:window-maximized="1"
     inkscape:current-layer="g1896"
     fit-margin-top="0"
     fit-margin-left="0"
     fit-margin-right="0"
     fit-margin-bottom="0" />
  <g
     inkscape:groupmode="layer"
     inkscape:label="Image"
     id="g1896"
     transform="translate(68.505768,42.454277)">
    <g
       id="g2724">
      <rect
         style="fill:#f2f2f2;fill-rule:evenodd;stroke-width:0.951055"
         id="rect2362"
         width="640"
         height="640"
         x="-68.505768"
         y="-42.454277" />
      <path
         style="fill:#b3b3b3;stroke-width:0.940987"
         d="m 53.114859,447.50413 c -3.620946,-0.71535 -0.828276,-29.78314 4.950946,-51.53238 8.931009,-33.6105 26.51806,-64.08486 51.754635,-89.67903 6.63256,-6.72654 13.2563,-12.42657 25.03172,-21.54093 8.31902,-6.43905 27.66767,-17.12273 40.46243,-22.34202 4.65789,-1.90005 8.79398,-3.7592 9.19132,-4.13144 0.39734,-0.37223 -1.2916,-2.12315 -3.7532,-3.89094 -10.5584,-7.58247 -25.99819,-26.1045 -32.51235,-39.00276 -5.50482,-10.89975 -10.40467,-27.7447 -11.85875,-40.76861 -1.07659,-9.64282 -0.0321,-27.71125 2.14361,-37.08118 6.6206,-28.5126 24.66297,-54.71389 48.55171,-70.507248 14.52338,-9.601714 25.80346,-14.286771 42.75818,-17.759136 13.88201,-2.843067 35.81588,-2.283806 49.51309,1.262465 38.54056,9.978319 68.33417,37.412849 81.66783,75.201299 7.92383,22.45664 8.12569,50.35018 0.52895,73.09214 -7.34008,21.97361 -22.7216,43.63441 -39.67168,55.86705 -2.19956,1.58738 -3.99919,3.1708 -3.99919,3.51868 0,0.3479 1.71279,1.14569 3.8062,1.7729 2.09342,0.6272 7.91577,3.04643 12.93857,5.37607 55.71565,25.84165 96.32771,74.66265 111.14705,133.61325 3.44477,13.70316 5.7283,29.78873 5.7283,40.35118 v 7.91769 l -13.87955,0.2836 c -7.63376,0.15597 -14.62058,0.12835 -15.52628,-0.0614 -1.34943,-0.28271 -1.64985,-1.387 -1.66397,-6.11641 -0.0215,-7.19781 -2.11082,-22.06658 -4.5794,-32.58959 -14.34561,-61.15221 -62.47328,-109.71607 -123.87698,-124.9997 -15.05098,-3.74625 -24.40221,-4.85757 -40.81839,-4.85093 -65.60376,0.0265 -124.69266,37.91005 -152.957977,98.06564 -8.928968,19.00305 -15.564288,46.60302 -15.564288,64.74046 v 5.53068 l -13.986254,0.2824 c -7.692435,0.15532 -14.679262,0.14549 -15.526282,-0.0218 z M 270.82475,244.90633 c 49.89223,-11.45046 77.67803,-64.54846 59.12965,-112.99529 -9.36494,-24.46042 -30.63845,-43.14265 -58.18866,-51.10086 -8.70448,-2.5144 -30.72889,-2.57115 -39.99194,-0.10306 -32.37347,8.62575 -56.11376,33.20078 -62.64446,64.84712 -5.90978,28.63747 2.61433,56.9068 23.26952,77.17097 14.99249,14.70869 32.52852,22.75309 52.54876,24.10602 10.81895,0.73113 15.97559,0.34754 25.87713,-1.9249 z"
         id="path1993" />
    </g>
  </g>
</svg>
